<svg xmlns="http://www.w3.org/2000/svg" xmlns:xlink="http://www.w3.org/1999/xlink" width="111" height="20" role="img" aria-label="using: Yoakke;">
	<title>using: Yoakke;</title>
	<linearGradient id="s" x2="0" y2="100%"><stop offset="0" stop-color="#bbb" stop-opacity=".1"/><stop offset="1" stop-opacity=".1"/></linearGradient>
	<clipPath id="r"><rect width="111" height="20" rx="3" fill="#fff"/></clipPath>
	<g clip-path="url(#r)">
		<rect width="56" height="20" fill="#555"/><rect x="56" width="55" height="20" fill="#fe7d37"/><rect width="111" height="20" fill="url(#s)"/>
	</g>
	<g fill="#fff" text-anchor="middle" font-family="Verdana,Geneva,DejaVu Sans,sans-serif" text-rendering="geometricPrecision" font-size="110">
		<!-- this should be supported, but for some reason it isn't working on GitHub -->
		<!-- <image x="2" y="2" width="19" height="19" xlink:href="https://raw.githubusercontent.com/LanguageDev/Yoakke/master/.github/resources/YoakkeLogoAnimated.svg"/> -->

		<!-- since the above doesn't work, I just copy-pasta the content of "YoakkeLogoAnimated.svg" here -->
		<svg xmlns="http://www.w3.org/2000/svg" xmlns:svg="http://www.w3.org/2000/svg" x="2" y="2" width="19" height="19" viewBox="0 0 1000 1000" preserveAspectRatio="xMidYMid meet">
		<clipPath id="cut-off-top">
			<animateTransform attributeName="transform" attributeType="XML" type="rotate" from="0 500 500" to="-360 500 500" dur="60s" repeatCount="indefinite"/>
			<rect height="430" width="1000" x="0" y="570"/>
			</clipPath>
		<clipPath id="cut-off-bottom">
			<animateTransform attributeName="transform" attributeType="XML" type="rotate" from="0 500 500" to="-360 500 500" dur="60s" repeatCount="indefinite"/>
			<rect height="570" width="1000" x="0" y="0"/>
		</clipPath>
		<g id="day" clip-path="url(#cut-off-bottom)">
			<animateTransform attributeName="transform" attributeType="XML" type="rotate" from="0 500 500" to="360 500 500" dur="60s" repeatCount="indefinite"/>
			<rect id="god-ray-1" fill="#e3d87e" fill-opacity="0.7" height="86" transform="rotate(151.39 -184.717 879.333)" width="835" x="-602.21659" y="836.54814"/>
			<rect id="god-ray-2" fill="#e3d87e" fill-opacity="0.7" height="86" transform="rotate(109.4 228.617 1228)" width="835" x="-188.88325" y="1185.21483"/>
			<rect id="god-ray-3" fill="#e3d87e" fill-opacity="0.7" height="86" transform="rotate(69.3666 766.617 1226)" width="835" x="349.11677" y="1183.21485"/>
			<rect id="god-ray-4" fill="#e3d87e" fill-opacity="0.7" height="86" transform="rotate(29.3635 1164 881.333)" width="835" x="745.78342" y="838.5482"/>
			<rect id="god-ray-5" fill="#e3d87e" fill-opacity="0.7" height="86" transform="matrix(1 0 0 1 0 0) rotate(-8.29718 1257.28 374)" width="835" x="839.78348" y="331.21489"/>
			<rect id="god-ray-6" fill="#e3d87e" fill-opacity="0.7" height="86" transform="rotate(130.752 995.75 -88.6666)" width="835" x="578.24978" y="-131.4518"/>
			<rect id="god-ray-7" fill="#e3d87e" fill-opacity="0.7" height="86" transform="rotate(89.4422 486.667 -266.667)" width="835" x="60.24978" y="-309.45179"/>
			<rect id="god-ray-8" fill="#e3d87e" fill-opacity="0.7" height="86" transform="rotate(50.2251 -9.37256 -97.7889)" width="835" x="-426.87257" y="-140.574"/>
			<rect id="god-ray-9" fill="#e3d87e" fill-opacity="0.7" height="86" transform="rotate(10.2681 -273.664 364.714)" width="835" x="-691.16399" y="321.92874"/>
			<path id="sun-gear-outline" fill="#e08938" d="m513.3392,756.79393c-7.35088,0.69185 -14.87472,1.16749 -22.61476,1.16749l0,0c-6.91847,0 -13.64237,-0.36754 -20.1933,-0.92967l0,0l-56.77473,72.96828l-13.96667,-3.9565c-16.38814,-4.60511 -32.30063,-10.37771 -47.60775,-17.29619l0,0l-13.27482,-6.01042l3.416,-91.66978c-12.06409,-8.43189 -23.32823,-17.83669 -33.74918,-28.14954l0,0l-89.7672,19.28525l-8.19407,-12.04247c-9.621,-14.13963 -17.81507,-28.94949 -25.07947,-43.93231l0,0l-6.31311,-13.08024l60.94743,-67.45512c-3.80516,-14.29097 -6.33473,-29.03597 -7.63194,-44.06203l0,0l-80.77318,-42.69996l1.47018,-14.46393c1.72962,-17.31781 5.08075,-33.8789 9.0805,-49.79139l0,0l3.56734,-14.11801l90.0915,-12.47487c6.42121,-13.55589 13.98829,-26.3983 22.50666,-38.48401l0,0l-34.37617,-84.62159l10.37771,-10.16151c12.19381,-11.89113 25.25243,-22.658 38.87318,-32.49521l0,0l11.80465,-8.51837l77.76797,48.8401c13.10186,-6.03204 26.80909,-11.0047 41.01358,-14.80986l0,0l28.19278,-87.47546l14.5288,-1.10263c7.82652,-0.58375 16.23679,-1.25397 25.38215,-1.25397l0,0c9.12374,0 17.51239,0.67023 25.33891,1.25397l0,0l14.5288,1.10263l28.49547,88.38351c13.66399,3.80516 26.89557,8.66971 39.58664,14.57204l0,0l78.84898,-49.53195l11.84789,8.51837c13.62075,9.83721 26.70099,20.6257 38.87318,32.45197l0,0l10.42095,10.16151l-35.43556,87.15115c7.71842,11.2209 14.68014,23.09041 20.6257,35.5869l0,0l92.90213,12.86404l3.61058,14.11801c4.0646,15.89087 7.39412,32.45197 9.0805,49.79139l0,0l1.47018,14.46393l-83.58381,44.19175c-1.25397,13.70723 -3.48086,27.19825 -6.81037,40.34335l0,0l62.97973,69.5739l-6.33473,13.1451c-7.24278,15.02606 -15.3936,29.87916 -25.05785,43.97555l0,0l-8.19407,11.99923l-91.99408,-19.71765c-9.75072,9.75072 -20.3014,18.72312 -31.58716,26.83071l0,0l3.50248,93.46426l-13.29644,6.01042c-15.32874,6.89685 -31.21961,12.69108 -47.60775,17.29619l0,0l-14.00991,3.9565l-56.90445,-73.16286l0,0l-0.00002,0zm73.01152,23.41471c4.90779,-1.64314 9.7291,-3.39438 14.50718,-5.27534l0,0l-3.28628,-88.2754l10.35609,-6.63741c15.50171,-10.07503 29.61972,-22.13912 42.15945,-35.84634l0,0l8.34541,-9.14536l87.04305,18.63664c2.61605,-4.36729 5.14562,-8.84267 7.5887,-13.40454l0,0l-59.54212,-65.8336l3.69706,-11.76141c5.25372,-16.92864 8.23731,-35.08964 9.12374,-54.05058l0,0l0.54051,-12.34515l79.08681,-41.79191c-0.82157,-5.05913 -1.77286,-10.09665 -2.85387,-15.13416l0,0l-87.99434,-12.17219l-4.73483,-11.39386c-7.06982,-17.01512 -16.43138,-32.94923 -27.60904,-47.65099l0,0l-7.39412,-9.79396l33.46812,-82.32984c-3.87002,-3.39438 -7.84814,-6.70227 -11.93437,-9.90207l0,0l-74.6979,46.89428l-11.0047,-5.79422c-16.30165,-8.58323 -33.92214,-15.09092 -52.51554,-19.32849l0,0l-12.02085,-2.74577l-26.98205,-83.6703c-2.61605,-0.12972 -5.16724,-0.19458 -7.65356,-0.19458l0,0c-2.52957,0 -5.08075,0.06486 -7.71842,0.19458l0,0l-26.78747,83.12979l-12.19381,2.59443c-18.9177,4.0646 -36.94898,10.68039 -53.7479,19.37173l0,0l-10.98308,5.70774l-73.48717,-46.15919c-4.0646,3.19979 -8.04273,6.50769 -11.89113,9.90207l0,0l32.58169,80.16782l-7.65356,9.81559c-11.93437,15.32874 -21.85805,32.10604 -29.29541,50.13732l0,0l-4.71321,11.4371l-85.16209,11.78303c-1.08101,5.03751 -2.0323,10.07503 -2.83225,15.13416l0,0l76.34104,40.36497l0.47565,12.43163c0.79995,20.0852 4.15108,39.34882 9.92369,57.35847l0,0l3.78354,11.84789l-57.66116,63.77968c2.42147,4.58349 4.95103,9.05888 7.5887,13.42616l0,0l84.66483,-18.22586l8.43189,9.14536c12.99376,14.20449 27.82524,26.57126 44.17013,36.81925l0,0l10.55067,6.59417l-3.22141,86.91333c4.77807,1.88096 9.621,3.6322 14.5288,5.27534l0,0l53.59655,-68.9253l12.23705,1.51342c9.23184,1.16749 18.22586,1.9242 27.17663,1.9242l0,0c9.621,0 19.32849,-0.84319 29.25217,-2.2485l0,0l12.34515,-1.72962l54.00734,69.4658l0,0l0,-0.00001zm24.43086,-178.97228l11.80465,18.13937l-74.87086,48.71038l-26.57126,-40.88386l0,0c-9.66424,2.35661 -19.82575,3.7403 -30.39805,3.7403l0,0c-73.16286,0 -132.44554,-59.30429 -132.44554,-132.38068l0,0c0,-73.16286 59.28267,-132.44554 132.44554,-132.44554l0,0c73.07638,0 132.38068,59.28267 132.38068,132.44554l0,0c0,30.0305 -10.09665,57.85574 -27.02529,80.08134l0,0l14.68014,22.59314m-50.37514,6.98333l2.33498,-1.4918l-21.33917,-32.84113l12.36677,-12.36677c16.17193,-16.21517 26.09562,-38.33267 26.09562,-62.95811l0,0c-0.08648,-49.25089 -39.95419,-89.11859 -89.14021,-89.20507l0,0c-49.29413,0.08648 -89.11859,39.91095 -89.20507,89.20507l0,0c0.08648,49.18603 39.95419,89.05373 89.20507,89.14021l0,0c11.0047,0 21.59861,-2.2485 31.8466,-6.18339l0,0l16.34489,-6.26987l21.49051,32.97085l0,0l0.00001,0.00001z"/>
			<path id="sun-gear-fill" fill="#e08938" fill-opacity="0.6" d="m250,509l-77,-45l8,-47l88,-9c0,0 36,-55 35,-54c-1,1 -32,-84 -32,-84c0,0 36,-29 36,-29c0,0 71,44 71,44c0,0 60,-20 60,-19c0,1 27,-84 27,-84c0,0 50,1 50,1c0,0 24,81 24,81c0,0 55,22 55,22c0,0 82,-47 82,-47c0,0 33,34 33,34c0,0 -29,81 -29,81c0,0 26,52 26,52c0,0 95,16 95,16c0,0 8,44 7,44c-1,0 -79,41 -79,42c0,1 -11,57 -11,57c0,0 59,70 59,70c0,0 -24,42 -25,44c-1,2 -84,-23 -84,-23c0,0 -50,40 -50,40c0,0 4,87 4,88c0,1 -45,17 -45,17c0,0 -57,-69 -57,-68c0,1 -63,1 -63,1c0,0 -52,66 -52,66c0,0 -48,-15 -48,-15c0,0 2,-86 1,-86c-1,0 -43,-40 -43,-40c0,0 -92,15 -92,15c0,0 -27,-40 -27,-40c0,0 63,-64 63,-64c0,0 -10,-61 -10,-61z"/>
		</g>
		<g id="night" clip-path="url(#cut-off-top)">
			<animateTransform attributeName="transform" attributeType="XML" type="rotate" from="0 500 500" to="360 500 500" dur="60s" repeatCount="indefinite"/>
			<path id="night-gear-outline" fill="#3d2531" d="m513.3392,756.79393c-7.35088,0.69185 -14.87472,1.16749 -22.61476,1.16749l0,0c-6.91847,0 -13.64237,-0.36754 -20.1933,-0.92967l0,0l-56.77473,72.96828l-13.96667,-3.9565c-16.38814,-4.60511 -32.30063,-10.37771 -47.60775,-17.29619l0,0l-13.27482,-6.01042l3.416,-91.66978c-12.06409,-8.43189 -23.32823,-17.83669 -33.74918,-28.14954l0,0l-89.7672,19.28525l-8.19407,-12.04247c-9.621,-14.13963 -17.81507,-28.94949 -25.07947,-43.93231l0,0l-6.31311,-13.08024l60.94743,-67.45512c-3.80516,-14.29097 -6.33473,-29.03597 -7.63194,-44.06203l0,0l-80.77318,-42.69996l1.47018,-14.46393c1.72962,-17.31781 5.08075,-33.8789 9.0805,-49.79139l0,0l3.56734,-14.11801l90.0915,-12.47487c6.42121,-13.55589 13.98829,-26.3983 22.50666,-38.48401l0,0l-34.37617,-84.62159l10.37771,-10.16151c12.19381,-11.89113 25.25243,-22.658 38.87318,-32.49521l0,0l11.80465,-8.51837l77.76797,48.8401c13.10186,-6.03204 26.80909,-11.0047 41.01358,-14.80986l0,0l28.19278,-87.47546l14.5288,-1.10263c7.82652,-0.58375 16.23679,-1.25397 25.38215,-1.25397l0,0c9.12374,0 17.51239,0.67023 25.33891,1.25397l0,0l14.5288,1.10263l28.49547,88.38351c13.66399,3.80516 26.89557,8.66971 39.58664,14.57204l0,0l78.84898,-49.53195l11.84789,8.51837c13.62075,9.83721 26.70099,20.6257 38.87318,32.45197l0,0l10.42095,10.16151l-35.43556,87.15115c7.71842,11.2209 14.68014,23.09041 20.6257,35.5869l0,0l92.90213,12.86404l3.61058,14.11801c4.0646,15.89087 7.39412,32.45197 9.0805,49.79139l0,0l1.47018,14.46393l-83.58381,44.19175c-1.25397,13.70723 -3.48086,27.19825 -6.81037,40.34335l0,0l62.97973,69.5739l-6.33473,13.1451c-7.24278,15.02606 -15.3936,29.87916 -25.05785,43.97555l0,0l-8.19407,11.99923l-91.99408,-19.71765c-9.75072,9.75072 -20.3014,18.72312 -31.58716,26.83071l0,0l3.50248,93.46426l-13.29644,6.01042c-15.32874,6.89685 -31.21961,12.69108 -47.60775,17.29619l0,0l-14.00991,3.9565l-56.90445,-73.16286l0,0l-0.00002,0zm73.01152,23.41471c4.90779,-1.64314 9.7291,-3.39438 14.50718,-5.27534l0,0l-3.28628,-88.2754l10.35609,-6.63741c15.50171,-10.07503 29.61972,-22.13912 42.15945,-35.84634l0,0l8.34541,-9.14536l87.04305,18.63664c2.61605,-4.36729 5.14562,-8.84267 7.5887,-13.40454l0,0l-59.54212,-65.8336l3.69706,-11.76141c5.25372,-16.92864 8.23731,-35.08964 9.12374,-54.05058l0,0l0.54051,-12.34515l79.08681,-41.79191c-0.82157,-5.05913 -1.77286,-10.09665 -2.85387,-15.13416l0,0l-87.99434,-12.17219l-4.73483,-11.39386c-7.06982,-17.01512 -16.43138,-32.94923 -27.60904,-47.65099l0,0l-7.39412,-9.79396l33.46812,-82.32984c-3.87002,-3.39438 -7.84814,-6.70227 -11.93437,-9.90207l0,0l-74.6979,46.89428l-11.0047,-5.79422c-16.30165,-8.58323 -33.92214,-15.09092 -52.51554,-19.32849l0,0l-12.02085,-2.74577l-26.98205,-83.6703c-2.61605,-0.12972 -5.16724,-0.19458 -7.65356,-0.19458l0,0c-2.52957,0 -5.08075,0.06486 -7.71842,0.19458l0,0l-26.78747,83.12979l-12.19381,2.59443c-18.9177,4.0646 -36.94898,10.68039 -53.7479,19.37173l0,0l-10.98308,5.70774l-73.48717,-46.15919c-4.0646,3.19979 -8.04273,6.50769 -11.89113,9.90207l0,0l32.58169,80.16782l-7.65356,9.81559c-11.93437,15.32874 -21.85805,32.10604 -29.29541,50.13732l0,0l-4.71321,11.4371l-85.16209,11.78303c-1.08101,5.03751 -2.0323,10.07503 -2.83225,15.13416l0,0l76.34104,40.36497l0.47565,12.43163c0.79995,20.0852 4.15108,39.34882 9.92369,57.35847l0,0l3.78354,11.84789l-57.66116,63.77968c2.42147,4.58349 4.95103,9.05888 7.5887,13.42616l0,0l84.66483,-18.22586l8.43189,9.14536c12.99376,14.20449 27.82524,26.57126 44.17013,36.81925l0,0l10.55067,6.59417l-3.22141,86.91333c4.77807,1.88096 9.621,3.6322 14.5288,5.27534l0,0l53.59655,-68.9253l12.23705,1.51342c9.23184,1.16749 18.22586,1.9242 27.17663,1.9242l0,0c9.621,0 19.32849,-0.84319 29.25217,-2.2485l0,0l12.34515,-1.72962l54.00734,69.4658l0,0l0,-0.00001zm24.43086,-178.97228l11.80465,18.13937l-74.87086,48.71038l-26.57126,-40.88386l0,0c-9.66424,2.35661 -19.82575,3.7403 -30.39805,3.7403l0,0c-73.16286,0 -132.44554,-59.30429 -132.44554,-132.38068l0,0c0,-73.16286 59.28267,-132.44554 132.44554,-132.44554l0,0c73.07638,0 132.38068,59.28267 132.38068,132.44554l0,0c0,30.0305 -10.09665,57.85574 -27.02529,80.08134l0,0l14.68014,22.59314m-50.37514,6.98333l2.33498,-1.4918l-21.33917,-32.84113l12.36677,-12.36677c16.17193,-16.21517 26.09562,-38.33267 26.09562,-62.95811l0,0c-0.08648,-49.25089 -39.95419,-89.11859 -89.14021,-89.20507l0,0c-49.29413,0.08648 -89.11859,39.91095 -89.20507,89.20507l0,0c0.08648,49.18603 39.95419,89.05373 89.20507,89.14021l0,0c11.0047,0 21.59861,-2.2485 31.8466,-6.18339l0,0l16.34489,-6.26987l21.49051,32.97085l0,0l0.00001,0.00001z"/>
			<path id="night-gear-fill" fill="#3d2531" fill-opacity="0.6" d="m250.95676,511.5l-77,-45l8,-47l88,-9c0,0 36,-55 35,-54c-1,1 -32,-84 -32,-84c0,0 36,-29 36,-29c0,0 71,44 71,44c0,0 60,-20 60,-19c0,1 27,-84 27,-84c0,0 50,1 50,1c0,0 24,81 24,81c0,0 55,22 55,22c0,0 82,-47 82,-47c0,0 33,34 33,34c0,0 -29,81 -29,81c0,0 26,52 26,52c0,0 95,16 95,16c0,0 8,44 7,44c-1,0 -79,41 -79,42c0,1 -11,57 -11,57c0,0 59,70 59,70c0,0 -24,42 -25,44c-1,2 -84,-23 -84,-23c0,0 -50,40 -50,40c0,0 4,87 4,88c0,1 -45,17 -45,17c0,0 -57,-69 -57,-68c0,1 -63,1 -63,1c0,0 -52,66 -52,66c0,0 -48,-15 -48,-15c0,0 2,-86 1,-86c-1,0 -43,-40 -43,-40c0,0 -92,15 -92,15c0,0 -27,-40 -27,-40c0,0 63,-64 63,-64c0,0 -10,-61 -10,-61z"/>
		</g>
		<g id="horizon" fill="#748067">
			<rect height="15" width="41" x="246" y="556"/>
			<rect height="24" width="21" x="286" y="547.5"/>
			<rect height="37" width="32" x="306" y="534"/>
			<rect height="50" width="42" x="337" y="521"/>
			<rect height="33" width="28" x="378" y="538"/>
			<rect height="44" width="47" x="405" y="527"/>
			<rect height="31" width="34" x="451" y="540"/>
			<rect height="24" width="57" x="484" y="547"/>
			<rect height="44" width="35" x="540" y="527"/>
			<rect height="53" width="33" x="574" y="518"/>
			<rect height="69" width="20" x="605" y="502.5"/>
			<rect height="48" width="33" x="623" y="523.5"/>
			<rect height="30" width="33" x="654" y="541.5"/>
			<rect height="20" width="33" x="686" y="551.5"/>
			<rect height="30" width="33" x="716" y="541"/>
			<rect height="40" width="33" x="747" y="531"/>
			<rect height="50" width="33" x="778" y="521"/>
			<rect height="30" width="33" x="810" y="541"/>
			<rect height="41" width="16" x="840" y="530"/>
			<rect height="17" width="33" x="855" y="554"/>
			<rect height="23" width="33" x="887" y="548"/>
			<rect height="30" width="42" x="919" y="541"/>
			<rect height="35" width="18" x="959" y="536"/>
			<rect height="22" width="23" x="976" y="549"/>
			<rect height="30" width="33" x="215" y="541"/>
			<rect height="43" width="67" x="149" y="528"/>
			<rect height="30" width="33" x="117" y="541"/>
			<rect height="53" width="45" x="74" y="518"/>
			<rect height="30" width="16" x="59" y="541"/>
			<rect height="39" width="33" x="27" y="531"/>
			<rect height="22" width="30" x="-2" y="548"/>
		</g>
		</svg>

		<text aria-hidden="true" x="375" y="150" fill="#010101" fill-opacity=".3" transform="scale(.1)" textLength="290">using</text>
		<text x="375" y="140" transform="scale(.1)" fill="#fff" textLength="290">using</text>
		<text aria-hidden="true" x="825" y="150" fill="#010101" fill-opacity=".3" transform="scale(.1)" textLength="450">Yoakke;</text>
		<text x="825" y="140" transform="scale(.1)" fill="#fff" textLength="450">Yoakke;</text>
	</g>
</svg>